<svg width="19" height="19" viewBox="0 0 19 19" fill="none" xmlns="http://www.w3.org/2000/svg">
<path d="M10.6875 5.14587L13.8541 8.31254M3.16663 15.8334H6.33329L14.6458 7.52087C14.8537 7.31294 15.0187 7.0661 15.1312 6.79443C15.2437 6.52276 15.3016 6.23159 15.3016 5.93754C15.3016 5.64348 15.2437 5.35231 15.1312 5.08064C15.0187 4.80897 14.8537 4.56213 14.6458 4.3542C14.4379 4.14628 14.191 3.98134 13.9194 3.86881C13.6477 3.75628 13.3565 3.69836 13.0625 3.69836C12.7684 3.69836 12.4772 3.75628 12.2056 3.86881C11.9339 3.98134 11.6871 4.14628 11.4791 4.3542L3.16663 12.6667V15.8334Z" stroke="#626F47" stroke-width="2" stroke-linecap="round" stroke-linejoin="round"/>
</svg>
