<svg width="62" height="19" viewBox="0 0 62 19" fill="none" xmlns="http://www.w3.org/2000/svg">
<path d="M22.5 15.94H30.7V16.63H22.5V15.94ZM26.17 13.77H26.99V16.14H26.17V13.77ZM23.46 9.37H24.29V10.98H28.89V9.37H29.71V14H23.46V9.37ZM24.29 11.66V13.32H28.89V11.66H24.29ZM38.3092 8.73H39.1292V17.79H38.3092V8.73ZM36.5892 12.2H38.5092V12.89H36.5892V12.2ZM32.0392 14.92H32.7292C33.2626 14.92 33.7526 14.9133 34.1992 14.9C34.6459 14.8867 35.0792 14.86 35.4992 14.82C35.9192 14.78 36.3492 14.7167 36.7892 14.63L36.8592 15.32C36.4059 15.4 35.9659 15.4633 35.5392 15.51C35.1192 15.55 34.6792 15.58 34.2192 15.6C33.7659 15.6133 33.2692 15.62 32.7292 15.62H32.0392V14.92ZM32.0092 9.57H36.0492V12.74H32.8592V15.14H32.0392V12.06H35.2392V10.25H32.0092V9.57ZM49.8309 8.73H50.6609V17.77H49.8309V8.73ZM50.4409 12.4H52.1009V13.09H50.4409V12.4ZM47.5209 9.7H48.3309C48.3309 10.56 48.1909 11.3833 47.9109 12.17C47.6309 12.95 47.1909 13.6733 46.5909 14.34C45.9909 15 45.2009 15.5733 44.2209 16.06L43.7609 15.42C44.6009 15 45.2976 14.51 45.8509 13.95C46.4109 13.3833 46.8276 12.7567 47.1009 12.07C47.3809 11.3767 47.5209 10.63 47.5209 9.83V9.7ZM44.1809 9.7H47.9409V10.39H44.1809V9.7ZM59.5002 8.73H60.3302V17.78H59.5002V8.73ZM56.8502 9.71H57.6702C57.6702 10.3633 57.5902 10.9933 57.4302 11.6C57.2768 12.2067 57.0335 12.7833 56.7002 13.33C56.3668 13.87 55.9335 14.3733 55.4002 14.84C54.8668 15.3067 54.2202 15.7233 53.4602 16.09L53.0202 15.42C53.8935 15 54.6135 14.51 55.1802 13.95C55.7468 13.39 56.1668 12.7667 56.4402 12.08C56.7135 11.3867 56.8502 10.64 56.8502 9.84V9.71ZM53.4402 9.71H57.2002V10.38H53.4402V9.71Z" fill="black"/>
<mask id="mask0_442_161" style="mask-type:luminance" maskUnits="userSpaceOnUse" x="0" y="0" width="19" height="19">
<path d="M10 1.66663V4.99996" stroke="white" stroke-width="2" stroke-linecap="round" stroke-linejoin="round"/>
<path fill-rule="evenodd" clip-rule="evenodd" d="M9.16663 9.16663L17.5 10.8333L15 12.5L17.5 15L15 17.5L12.5 15L10.8333 17.5L9.16663 9.16663Z" fill="#555555" stroke="white" stroke-width="2" stroke-linecap="round" stroke-linejoin="round"/>
<path d="M15.8925 4.10742L13.5354 6.46451M4.10746 15.8924L6.46454 13.5353M1.66663 9.99992H4.99996M4.10746 4.10742L6.46454 6.46451" stroke="white" stroke-width="2" stroke-linecap="round" stroke-linejoin="round"/>
</mask>
<g mask="url(#mask0_442_161)">
<path d="M0 0H20V20H0V0Z" fill="#626F47"/>
</g>
</svg>
