<svg width="60" height="60" viewBox="0 0 60 60" fill="none" xmlns="http://www.w3.org/2000/svg">
<path opacity="0.15" d="M12.9625 52.675C12.9625 52.9803 13.4032 53.2826 14.2594 53.5647C15.1156 53.8468 16.3706 54.1031 17.9527 54.319C19.5348 54.5349 21.413 54.7062 23.4801 54.823C25.5471 54.9398 27.7626 55 30 55C32.2374 55 34.4529 54.9398 36.52 54.823C38.5871 54.7062 40.4653 54.5349 42.0474 54.319C43.6294 54.1031 44.8844 53.8468 45.7406 53.5647C46.5968 53.2826 47.0375 52.9803 47.0375 52.675C47.0375 52.0583 45.2425 51.467 42.0474 51.031C38.8522 50.5949 34.5187 50.35 30 50.35C25.4814 50.35 21.1478 50.5949 17.9527 51.031C14.7575 51.467 12.9625 52.0583 12.9625 52.675Z" fill="#45413C"/>
<path d="M2.71252 30C2.71252 34.0048 5.58745 37.8455 10.7048 40.6773C15.8222 43.5091 22.7629 45.1 30 45.1C37.2371 45.1 44.1778 43.5091 49.2952 40.6773C54.4126 37.8455 57.2875 34.0048 57.2875 30C57.2875 25.9953 54.4126 22.1545 49.2952 19.3227C44.1778 16.4909 37.2371 14.9 30 14.9C22.7629 14.9 15.8222 16.4909 10.7048 19.3227C5.58745 22.1545 2.71252 25.9953 2.71252 30Z" fill="white"/>
<path d="M30 22.2625C43.5625 22.2625 52.625 28.6625 55.9125 33.675C56.7058 32.6029 57.1822 31.3296 57.2875 30C57.2875 25.3625 47.2875 14.9 30 14.9C12.7125 14.9 2.71252 25.3625 2.71252 30C2.81787 31.3296 3.29427 32.6029 4.08752 33.675C7.37502 28.6625 16.4375 22.2625 30 22.2625Z" fill="#E0E0E0"/>
<path d="M2.71252 30C2.71252 34.0048 5.58745 37.8455 10.7048 40.6773C15.8222 43.5091 22.7629 45.1 30 45.1C37.2371 45.1 44.1778 43.5091 49.2952 40.6773C54.4126 37.8455 57.2875 34.0048 57.2875 30C57.2875 25.9953 54.4126 22.1545 49.2952 19.3227C44.1778 16.4909 37.2371 14.9 30 14.9C22.7629 14.9 15.8222 16.4909 10.7048 19.3227C5.58745 22.1545 2.71252 25.9953 2.71252 30Z" stroke="#45413C" stroke-width="0.5" stroke-linecap="round" stroke-linejoin="round"/>
<path d="M30 18.4875C46.4125 18.4875 55.9 28.8 56.0375 33.4875C56.7598 32.4584 57.1916 31.2537 57.2875 30C57.2875 25.3625 47.2875 14.9 30 14.9C12.7125 14.9 2.71252 25.3625 2.71252 30C2.80842 31.2537 3.24021 32.4584 3.96252 33.4875C4.10002 28.75 13.5875 18.4875 30 18.4875Z" fill="#656769" stroke="#45413C" stroke-width="0.5" stroke-linecap="round" stroke-linejoin="round"/>
<path d="M18.775 30C18.775 32.9771 19.9577 35.8322 22.0627 37.9373C24.1678 40.0424 27.023 41.225 30 41.225C32.9771 41.225 35.8322 40.0424 37.9373 37.9373C40.0424 35.8322 41.225 32.9771 41.225 30C41.225 28.5259 40.9347 27.0663 40.3706 25.7044C39.8065 24.3425 38.9796 23.1051 37.9373 22.0628C36.895 21.0204 35.6575 20.1936 34.2956 19.6295C32.9338 19.0654 31.4741 18.775 30 18.775C28.5259 18.775 27.0663 19.0654 25.7044 19.6295C24.3425 20.1936 23.1051 21.0204 22.0627 22.0628C21.0204 23.1051 20.1936 24.3425 19.6295 25.7044C19.0654 27.0663 18.775 28.5259 18.775 30Z" fill="#B89558"/>
<path d="M37.7875 21.9125C38.9939 23.3867 39.757 25.1731 39.9881 27.0639C40.2193 28.9547 39.909 30.8723 39.0933 32.5937C38.2777 34.3151 36.9901 35.7697 35.3804 36.7882C33.7707 37.8068 31.9049 38.3475 30 38.3475C28.0951 38.3475 26.2293 37.8068 24.6196 36.7882C23.0099 35.7697 21.7224 34.3151 20.9067 32.5937C20.091 30.8723 19.7807 28.9547 20.0119 27.0639C20.243 25.1731 21.0061 23.3867 22.2125 21.9125C20.5923 23.4665 19.4741 25.4698 19.0018 27.6645C18.5295 29.8593 18.7246 32.1452 19.5621 34.2281C20.3995 36.3111 21.8411 38.0958 23.7012 39.3528C25.5613 40.6097 27.755 41.2814 30 41.2814C32.245 41.2814 34.4387 40.6097 36.2988 39.3528C38.1589 38.0958 39.6005 36.3111 40.4379 34.2281C41.2754 32.1452 41.4705 29.8593 40.9982 27.6645C40.5259 25.4698 39.4077 23.4665 37.7875 21.9125Z" fill="#947746"/>
<path d="M18.775 30C18.775 32.9771 19.9577 35.8322 22.0627 37.9373C24.1678 40.0424 27.023 41.225 30 41.225C32.9771 41.225 35.8322 40.0424 37.9373 37.9373C40.0424 35.8322 41.225 32.9771 41.225 30C41.225 28.5259 40.9347 27.0663 40.3706 25.7044C39.8065 24.3425 38.9796 23.1051 37.9373 22.0628C36.895 21.0204 35.6575 20.1936 34.2956 19.6295C32.9338 19.0654 31.4741 18.775 30 18.775C28.5259 18.775 27.0663 19.0654 25.7044 19.6295C24.3425 20.1936 23.1051 21.0204 22.0627 22.0628C21.0204 23.1051 20.1936 24.3425 19.6295 25.7044C19.0654 27.0663 18.775 28.5259 18.775 30Z" stroke="#45413C" stroke-width="0.5" stroke-linecap="round" stroke-linejoin="round"/>
<path d="M24.9625 30C24.9625 31.3361 25.4933 32.6174 26.438 33.5621C27.3827 34.5068 28.664 35.0375 30 35.0375C31.3361 35.0375 32.6174 34.5068 33.5621 33.5621C34.5068 32.6174 35.0375 31.3361 35.0375 30C35.0375 28.664 34.5068 27.3827 33.5621 26.438C32.6174 25.4933 31.3361 24.9625 30 24.9625C28.664 24.9625 27.3827 25.4933 26.438 26.438C25.4933 27.3827 24.9625 28.664 24.9625 30Z" fill="#525252" stroke="#45413C" stroke-width="0.5" stroke-linecap="round" stroke-linejoin="round"/>
<path d="M21.9375 24.75C21.9375 25.7677 22.3418 26.7438 23.0615 27.4635C23.7811 28.1832 24.7572 28.5875 25.775 28.5875C26.7928 28.5875 27.7689 28.1832 28.4885 27.4635C29.2082 26.7438 29.6125 25.7677 29.6125 24.75C29.6125 23.7322 29.2082 22.7561 28.4885 22.0365C27.7689 21.3168 26.7928 20.9125 25.775 20.9125C24.7572 20.9125 23.7811 21.3168 23.0615 22.0365C22.3418 22.7561 21.9375 23.7322 21.9375 24.75Z" fill="white" stroke="#45413C" stroke-width="0.5" stroke-linecap="round" stroke-linejoin="round"/>
</svg>
