<svg width="70" height="70" viewBox="0 0 70 70" fill="none" xmlns="http://www.w3.org/2000/svg">
<path d="M66.7188 44.3735C64.4164 41.1469 58.9422 41.3711 57.4055 41.4313L57.2031 41.4367C54.5016 41.5461 51.8766 40.5071 49.9844 38.5821L31.3359 19.9336C30.3986 18.98 29.6715 17.8406 29.2014 16.5888C28.7314 15.3369 28.5289 14.0005 28.607 12.6656L28.618 12.4633C28.7055 10.9321 28.8094 8.87034 28.5906 7.25705C28.2516 4.75784 25.7305 0.929711 19.1352 2.26955C15.7336 2.95862 14.4484 4.30393 14.1914 7.49768C14.1367 8.1758 14.4813 11.6813 13.1305 13.0867C12.4633 13.7813 8.69532 13.4258 8.01719 13.4696C4.81798 13.6774 2.13282 15.9633 2.13282 20.5461C2.12735 25.5063 5.23907 28.3391 7.02735 28.4485C8.65157 28.5469 10.6969 28.6289 12.2336 28.5688L16.9313 28.3336C16.9313 28.3336 17.5602 28.9571 19.4524 30.8821L38.3086 50.0664C40.2063 51.9969 41.1961 54.6383 41.0375 57.3344L41.0266 57.5367C40.9391 59.068 40.0859 64.7992 43.7992 66.8992C44.3133 67.1891 46.8617 68.4524 50.5094 67.736C53.9164 67.0633 55.1961 65.7016 55.4531 62.5078C55.5078 61.8297 55.5133 57.6571 56.9024 56.2953C58.2914 54.9336 61.5125 55.4641 62.1906 55.4203C65.3899 55.218 67.2875 54.3321 67.9274 50.9196C68.4906 47.9117 67.0633 44.8547 66.7188 44.3735Z" fill="#FCEACC"/>
<path d="M14.3609 6.07031C14.7984 4.3914 17.0516 4.61562 17.6094 5.15703C18.1836 5.70937 18.5008 6.48047 18.6047 7.25703C19.0149 10.4344 17.9484 12.2609 16.8383 12.857C15.7117 13.4531 14.9625 13.557 13.2945 13.7266C12.2828 13.8305 11.4461 13.6664 11.8016 13.475C12.3649 13.1742 13.5188 12.3867 13.7703 11.9273C14.0602 11.3914 14.0492 10.9102 14.1039 10.3414C14.2352 8.91953 13.9945 7.47031 14.3609 6.07031ZM67.9274 50.9141C67.9274 50.9031 67.9328 50.8922 67.9328 50.8812C68.1078 49.9242 66.9922 49.2406 66.2102 49.8148C66.0297 49.9461 65.8274 50.0773 65.6141 50.1977C63.3774 51.45 60.293 50.4492 58.2039 51.9312C54.4906 54.5672 56.6617 61.693 54.1406 63.3883C52.7024 64.3562 49.9133 64.6461 48.3711 63.8641C45.8828 62.6062 45.5055 61.0258 45.3742 59.2977C45.1774 56.7109 45.15 53.807 44.7508 51.7945C44.2094 49.0711 40.775 45.3852 40.775 45.3852C40.775 45.3852 26.6875 29.9414 21.3938 25.1344C19.3594 23.2914 16.193 23.9258 13.7758 24.2211C10.9484 24.5602 9.07266 24.325 7.41563 22.9086C5.7586 21.4922 5.31016 18.2383 5.99923 16.1711C6.68829 14.1039 9.83282 13.5133 9.83282 13.5133C8.72813 13.4641 8.35626 13.4477 8.01173 13.4695C4.81798 13.6773 2.13282 15.9633 2.13282 20.5461C2.12735 25.5062 5.09688 28.0711 6.83595 28.5031C8.79376 28.9953 13.9234 28.4812 13.9234 28.4812C13.9234 28.4812 16.6961 28.0984 17.8336 29.2359C18.2219 29.6242 18.7524 30.1656 19.4524 30.882L38.3086 50.0664C40.2063 51.9969 41.1961 54.6383 41.0375 57.3344L41.0266 57.5367C40.9391 59.068 40.0859 64.7992 43.7992 66.8992C44.3133 67.1891 46.8617 68.4523 50.5094 67.7359C53.9164 67.0633 55.1961 65.7016 55.4531 62.5078C55.5078 61.8297 55.5133 57.657 56.9024 56.2953C58.2914 54.9336 61.5125 55.4641 62.1906 55.4203C65.3899 55.2125 67.293 54.3266 67.9274 50.9141Z" fill="#DEBCA8"/>
</svg>
