<svg width="52" height="52" viewBox="0 0 52 52" fill="none" xmlns="http://www.w3.org/2000/svg">
<path fill-rule="evenodd" clip-rule="evenodd" d="M0 39.8667C0 41.2458 0.547856 42.5685 1.52304 43.5436C2.49823 44.5188 3.82087 45.0667 5.2 45.0667H39.8667C41.2458 45.0667 42.5684 44.5188 43.5436 43.5436C44.5188 42.5685 45.0667 41.2458 45.0667 39.8667V12.1333C45.0667 10.7542 44.5188 9.43158 43.5436 8.45639C42.5684 7.48121 41.2458 6.93335 39.8667 6.93335H5.2C3.82087 6.93335 2.49823 7.48121 1.52304 8.45639C0.547856 9.43158 0 10.7542 0 12.1333L0 39.8667ZM23.3099 17.5171C23.0456 17.3847 22.7519 17.322 22.4566 17.3351C22.1613 17.3482 21.8742 17.4366 21.6227 17.5919C21.3712 17.7471 21.1636 17.9642 21.0196 18.2223C20.8756 18.4804 20.8 18.7711 20.8 19.0667V30.1288L9.4432 24.4504L7.89013 27.5496L21.7568 34.483C22.0211 34.6154 22.3148 34.678 22.6101 34.6649C22.9054 34.6518 23.1924 34.5635 23.4439 34.4082C23.6954 34.2529 23.9031 34.0359 24.0471 33.7777C24.1911 33.5196 24.2667 33.2289 24.2667 32.9334V21.8712L35.6235 27.5496L37.1765 24.4504L23.3099 17.5171Z" fill="#FFCF50"/>
<path d="M52.0001 17.3333V34.6666H48.5334V17.3333H52.0001Z" fill="#FFCF50"/>
</svg>
