<svg width="65" height="65" viewBox="0 0 65 65" fill="none" xmlns="http://www.w3.org/2000/svg">
<path d="M39.0461 15.1125C38.239 17.1113 38.2065 19.6354 38.2065 21.6667H32.7005V21.534C32.7005 19.6381 32.7005 16.1606 33.9273 13.1138C34.1514 12.5447 34.4232 11.9957 34.7398 11.4725L33.7865 11.3263C25.0603 9.99918 14.8228 10.9336 9.58755 20.2204C7.66464 23.6275 6.69776 28.2913 6.16422 32.1371C5.69378 35.5825 5.445 39.0545 5.41943 42.5317C5.38422 44.5169 5.82568 46.865 6.78443 48.8854C7.60776 50.6133 9.88005 54.1667 14.4003 54.1667C19.0505 54.1667 21.2117 50.3371 21.8563 49.1617C22.2089 48.5017 22.5404 47.8305 22.8503 47.1494L22.9857 46.8596C23.1297 46.5498 23.2796 46.2428 23.4353 45.9388C23.6862 45.9261 23.9634 45.9036 24.2667 45.8711C25.8376 45.7031 27.3353 45.2346 28.573 44.8013V35.815C25.9323 36.4298 23.8713 36.1021 22.4521 35.4033C21.5936 34.9836 20.8921 34.3823 20.5455 33.6971C20.4181 33.465 20.3422 33.2082 20.323 32.9441C20.3039 32.68 20.3419 32.4149 20.4344 32.1669C20.7567 31.3733 21.5178 31.1458 22.0323 31.1458H29.2853C29.8161 29.8838 30.6448 28.879 31.7932 28.1721C33.5807 27.0725 35.6661 27.0806 36.679 27.0833H36.8307V32.5C36.2538 32.5 35.8205 32.5054 35.4223 32.5596C35.1737 32.5807 34.9316 32.6506 34.7101 32.7654C34.6776 32.7817 34.079 33.0877 34.079 35.2083V42.9433L28.573 44.7958L28.7084 54.1667H34.1251L34.0844 42.9596L34.3823 42.8783C38.5261 41.7761 40.9121 39.0136 42.2988 37.1692C42.6211 36.7413 42.919 36.3215 43.1601 35.9775L43.2142 35.9017C43.4632 35.548 43.7205 35.2003 43.9861 34.859C44.5413 34.599 45.1832 34.385 46.1067 34.1142L46.5346 33.9896C47.5096 33.7106 48.8665 33.3206 50.2017 32.7519C52.7963 31.6469 54.684 29.6833 55.9705 27.9419C57.2201 26.2166 58.2483 24.3414 59.0309 22.36C59.5759 21.0245 59.7199 19.5591 59.4453 18.143C59.1706 16.7269 58.4892 15.4216 57.4844 14.3867C56.5683 13.452 55.4445 12.7468 54.2045 12.3284C52.9644 11.9101 51.6431 11.7903 50.348 11.979C47.7507 12.3392 45.4459 12.4963 44.5359 12.4963H44.3301C43.5771 12.4963 42.9488 12.4963 41.8817 12.4069C41.4098 12.5302 40.9639 12.7376 40.5655 13.019C39.929 13.4794 39.428 14.1673 39.0461 15.1125Z" fill="#FC9A9A"/>
</svg>
